<!DOCTYPE svg PUBLIC "-//W3C//DTD SVG 1.1//EN" "http://www.w3.org/Graphics/SVG/1.1/DTD/svg11.dtd">
<!-- Uploaded to: SVG Repo, www.svgrepo.com, Transformed by: SVG Repo Mixer Tools -->
<svg height="800px" width="800px" version="1.1" id="Capa_1" xmlns="http://www.w3.org/2000/svg" xmlns:xlink="http://www.w3.org/1999/xlink" viewBox="0 0 56.934 56.934" xml:space="preserve" fill="#de1212" stroke="#de1212">
<g id="SVGRepo_bgCarrier" stroke-width="0"/>
<g id="SVGRepo_tracerCarrier" stroke-linecap="round" stroke-linejoin="round"/>
<g id="SVGRepo_iconCarrier"> <g> <path style="fill:#e70d0d;" d="M10.855,3.074c2.25-0.023,5.345,0.433,7.699,2.651c4.173,3.933,7.143,5.537,10.675,5.697 c3.532,0.162,8.427-1.444,11.317,0.724C43.02,14,46.258,18.09,51.771,19.18c1.625,0.32,1.725,0.756,0.111,1.131 c-1.479,0.345-3.431,0.665-5.615,0.681c-1.657,0.013-4.335-0.44-5.978-0.219c-1.79,0.24-4.231,0.989-6.887,3.011 c-5.378,4.094-8.856,6.399-15.812,3.211c-2.75-1.261-5.082-1.54-6.771-1.485c-1.656,0.053-2.941-0.82-2.941-2.478V6.398 C7.878,4.74,9.198,3.092,10.855,3.074z"/> <path style="fill:#e70d0d;" d="M6.674,53.935V6.073c0-1.657-0.623-3-1.392-3c-0.768,0-1.391,1.343-1.391,3v47.861 c0,1.657,0.623,3,1.391,3C6.051,56.935,6.674,55.592,6.674,53.935z"/> <path style="fill:#e70d0d;" d="M6.353,1.123c0,0,0,0.252,0,0.562c0,0.311-0.503,0.562-1.124,0.562 c-0.621,0-1.124-0.252-1.124-0.562c0-0.165,0-0.357,0-0.562C4.105,0.503,4.608,0,5.229,0S6.353,0.503,6.353,1.123z"/> </g> </g>
</svg>